<?xml version="1.0" standalone="no"?>
<!DOCTYPE svg PUBLIC "-//W3C//DTD SVG 20010904//EN"
 "http://www.w3.org/TR/2001/REC-SVG-20010904/DTD/svg10.dtd">
<svg version="1.0" xmlns="http://www.w3.org/2000/svg"
 width="148.000000pt" height="148.000000pt" viewBox="0 0 148.000000 148.000000"
 preserveAspectRatio="xMidYMid meet">
<metadata>
Created by potrace 1.11, written by Peter Selinger 2001-2013
</metadata>
<g transform="translate(0.000000,148.000000) scale(0.100000,-0.100000)"
fill="#000000" stroke="none">
<path d="M594 1455 c-196 -43 -370 -168 -474 -340 -31 -50 -95 -203 -90 -213
1 -1 -1 -20 -5 -43 -47 -275 74 -561 303 -721 56 -39 177 -95 233 -107 86 -19
105 -21 182 -22 226 0 423 94 579 278 120 142 179 383 143 588 -47 274 -265
503 -545 574 -90 23 -239 26 -326 6z m302 -105 c225 -58 388 -219 456 -450 21
-75 23 -233 3 -309 -57 -215 -211 -381 -418 -452 -93 -32 -268 -36 -362 -8
-293 88 -478 343 -462 639 10 193 98 358 251 474 149 113 348 153 532 106z"/>
</g>
</svg>
